<?xml version="1.0" encoding="utf-8"?>
<!-- Generator: Adobe Illustrator 28.0.0, SVG Export Plug-In . SVG Version: 6.00 Build 0)  -->
<svg version="1.1" id="Camada_1" xmlns="http://www.w3.org/2000/svg" xmlns:xlink="http://www.w3.org/1999/xlink" x="0px" y="0px"
	 viewBox="0 0 16 16" style="enable-background:new 0 0 16 16;" xml:space="preserve">
<style type="text/css">
	.st0{fill:#FFC107;stroke:#FFC107;stroke-width:0.5;stroke-miterlimit:10;}
</style>
<path class="st0" d="M10.5,1.6c0.1-0.3-0.1-0.5-0.3-0.6C9.9,0.9,9.6,1.1,9.5,1.4l-4,13c-0.1,0.3,0.1,0.5,0.3,0.6
	c0.3,0.1,0.5-0.1,0.6-0.3C6.5,14.6,10.5,1.6,10.5,1.6z M4.9,4.1C5,4.3,5,4.7,4.9,4.9c0,0,0,0,0,0L1.7,8l3.1,3.1
	c0.2,0.2,0.2,0.5,0,0.7s-0.5,0.2-0.7,0L0.6,8.4c-0.2-0.2-0.2-0.5,0-0.7c0,0,0,0,0,0l3.5-3.5C4.3,4,4.7,4,4.9,4.1
	C4.9,4.1,4.9,4.1,4.9,4.1z M11.1,4.1c-0.2,0.2-0.2,0.5,0,0.7c0,0,0,0,0,0L14.3,8l-3.1,3.1c-0.2,0.2-0.2,0.5,0,0.7s0.5,0.2,0.7,0
	l3.5-3.5c0.2-0.2,0.2-0.5,0-0.7c0,0,0,0,0,0l-3.5-3.5C11.7,4,11.3,4,11.1,4.1C11.1,4.1,11.1,4.1,11.1,4.1z"/>
</svg>
